<svg height="512pt" viewBox="0 0 512 512" width="512pt" xmlns="http://www.w3.org/2000/svg"><path d="m361.601562 0h-211.203124l-150.398438 150.398438v211.203124l150.398438 150.398438h211.203124l150.398438-150.398438v-211.203124zm0 0" fill="#ff6c6c"/><path d="m512 150.398438v211.203124l-150.398438 150.398438h-105.601562v-512h105.601562zm0 0" fill="#ff4949"/><path d="m336.699219 61h-161.398438l-114.300781 114.300781v161.398438l114.300781 114.300781h161.398438l114.300781-114.300781v-161.398438zm84.300781 263.402344-96.597656 96.597656h-136.804688l-96.597656-96.597656v-136.804688l96.597656-96.597656h136.804688l96.597656 96.597656zm0 0" fill="#deecf1"/><path d="m451 175.300781v161.398438l-114.300781 114.300781h-80.699219v-30h68.402344l96.597656-96.597656v-136.804688l-96.597656-96.597656h-68.402344v-30h80.699219zm0 0" fill="#c6e2e7"/></svg>