<svg width="120.00000000000001" height="140" xmlns="http://www.w3.org/2000/svg">

 <metadata id="metadata5">image/svg+xml</metadata>
 <g>
  <title>background</title>
  <rect fill="none" id="canvas_background" height="142" width="122" y="-1" x="-1"/>
 </g>
 <g>
  <title>Layer 1</title>
  <g stroke="null" id="layer1">
   <path stroke="null" fill="#072742" stroke-width="6.110291" id="path111" d="m196.006206,190.456532c-8.087202,-7.81202 -19.558895,-13.623607 -28.478753,-14.42741l-14.936541,-1.345994l0,-55.490058l0,-55.490066l59.959404,0l59.959373,0l0,55.490066l0,55.490058l-14.936526,1.345994c-8.919858,0.803803 -20.391543,6.61539 -28.478745,14.42741c-7.4482,7.194788 -14.893053,13.081424 -16.544102,13.081424c-1.651034,0 -9.095888,-5.886635 -16.54411,-13.081424zm6.950614,-40.189036c0,-5.918935 3.197832,-8.87841 9.593496,-8.87841c6.395671,0 9.593511,2.959475 9.593511,8.87841c0,5.918935 3.197832,8.87841 9.593473,8.87841c7.035248,0 9.593511,-2.959475 9.593511,-11.098009c0,-6.103906 2.493087,-11.098016 5.540188,-11.098016c3.226665,0 2.073949,-3.544656 -2.760414,-8.488385c-7.165267,-7.327354 -7.303723,-8.69353 -1.012303,-9.988213c5.334985,-1.097851 2.218078,-6.510164 -11.629834,-20.194542l-18.918132,-18.694721l-18.918139,18.694721c-13.847927,13.684378 -16.964819,19.096691 -11.629842,20.194542c6.291427,1.294683 6.152963,2.660859 -1.012296,9.988213c-4.83437,4.943728 -5.987086,8.488385 -2.760414,8.488385c3.047101,0 5.540188,4.99411 5.540188,11.098016c0,8.138534 2.558263,11.098009 9.593496,11.098009c6.395671,0 9.593511,-2.959475 9.593511,-8.87841z"/>
  </g>
  <line stroke="#000" stroke-linecap="undefined" stroke-linejoin="undefined" id="svg_1" y2="146.845961" x2="-40.461063" y1="146.845961" x1="0.850409" stroke-width="1.5" fill="none"/>
  <rect id="svg_2" height="110" width="120" y="0" x="0" stroke-width="0" fill="#0d3752"/>
  <path stroke="null" id="svg_5" d="m32.626263,109.815863l27.373736,30.505067l27.373736,-30.505067l-54.747472,0z" stroke-width="0" fill="#0d3752"/>
  <path id="svg_6" d="m-50.797264,37.876005c-0.208672,0 -0.315929,-0.244992 -0.315929,-0.538781c0,-0.244935 0.05362,-0.482739 0.208672,-0.482739c0.107257,0 0.268719,0.237804 0.32234,0.482739c0.107257,0.356621 0,0.538781 -0.215082,0.538781zm35.670269,13.978939c0.477407,0 0.584648,0.062832 0.315929,0.482682c-0.155051,0.293789 -0.477391,0.538724 -0.632442,0.538724c-0.161446,0 -0.32234,-0.244935 -0.32234,-0.538724c0,-0.300996 0.215099,-0.482682 0.638853,-0.482682zm-33.330525,-17.099391c-0.477391,-0.118874 -0.531028,-0.720828 0,-0.902571c0.268703,-0.055966 0.42377,0.118855 0.42377,0.482739c0,0.300958 -0.155068,0.475855 -0.42377,0.419832zm-5.950785,19.016219c0.638853,-0.174916 0.638853,-0.300636 0.42377,-0.71364c-0.160894,-0.300636 -0.214514,-0.664482 -0.107257,-0.783375c0.05362,-0.182066 0.32234,0 0.477391,0.356659c0.215082,0.482739 0.37596,0.54595 0.79973,0.244935c0.262893,-0.181724 0.477391,-0.30092 0.477391,-0.118855c0,0.118855 0.161462,0 0.370134,-0.244935c0.322356,-0.356659 0.375976,-1.140356 0.053637,-1.560226c-0.262309,-0.356659 -1.593635,-0.237766 -1.963768,0.181724c-0.214514,0.301015 -0.375976,0.238146 -0.584648,-0.300579c-0.32234,-0.895763 -0.32234,-1.021521 0.423754,-1.077487c0.638853,0 0.638853,0 0.107257,-0.363847c-0.268135,-0.174916 -0.531011,-0.538724 -0.531011,-0.776529c0,-0.601916 0.740268,-0.958575 1.062607,-0.538706c0.107257,0.174878 0.315945,0.356659 0.531028,0.356659c0.42377,0 2.446986,-2.035797 2.446986,-2.455666c0,-0.182047 0.209256,-0.300901 0.42377,-0.182047c0.262877,0.063192 0.740284,-0.118855 1.224085,-0.41987c0.686063,-0.482701 0.686063,-0.538724 0.315929,-1.3221c-0.262309,-0.538724 -0.584648,-0.720828 -1.330758,-0.720828c-0.847525,0 -1.062607,0.118912 -1.324916,0.83974c-0.107841,0.482682 -0.430165,0.83936 -0.638853,0.83936c-0.370134,0 -0.477391,-0.538402 -0.107257,-0.83936c0.160878,-0.118912 0.268135,-0.538724 0.268135,-0.958594c0,-0.657655 -0.107257,-0.776529 -0.79973,-0.601594c-0.692473,0.118855 -0.692473,0.062832 -0.531028,-0.839778c0.107257,-0.538706 0.262309,-1.021407 0.37015,-1.07743c0.107257,-0.062832 0.214498,-0.601594 0.214498,-1.140318c0,-1.077544 0.316513,-1.259268 0.901746,-0.482739c0.268119,0.419851 0.429597,0.482739 0.531011,0.118855c0.107257,-0.237766 0.483217,-0.293789 1.068449,-0.174935c0.793904,0.237804 0.847525,0.174935 0.740268,-0.538724c-0.05362,-0.419813 -0.107825,-0.902552 -0.161446,-1.021407c0,-0.181781 -0.262309,-0.41987 -0.578822,-0.601651c-0.638853,-0.300901 -0.79973,-1.021407 -0.215082,-1.021407c0.161462,0 0.316497,-0.118912 0.316497,-0.357038c0,-0.181781 0.322356,-0.300636 0.74611,-0.244973c0.585232,0.063192 0.901161,-0.17484 1.700892,-1.434051c0.585232,-0.902609 1.008987,-1.38531 1.062623,-1.140375c0.05362,0.300636 0.32234,0.475514 0.585216,0.475514c0.42377,0 0.477407,-0.174878 0.322356,-0.958253c-0.054205,-0.538762 -0.322356,-1.196342 -0.483801,-1.497357c-0.477407,-0.664748 -0.477407,-1.441277 0,-1.203567c0.37596,0.238146 1.545824,-0.41949 1.545824,-0.839341c0,-0.182066 0.155636,-0.300958 0.370134,-0.300958c0.215099,0 0.316513,0.363828 0.316513,0.839721c0,0.601594 0.107257,0.839398 0.375976,0.664464c0.208672,-0.125739 0.37015,-0.482739 0.37015,-0.720487c0,-0.720866 1.700876,-1.980096 2.12463,-1.623115c0.161478,0.11895 0.32234,0 0.376577,-0.419813c0.155035,-0.839721 1.115643,-1.497357 1.539398,-1.077487c0.215099,0.174878 0.423787,0.118912 0.477991,-0.062832c0.107241,-0.238127 0.531011,-0.41987 1.008402,-0.475931c0.477391,-0.062832 1.116244,-0.300958 1.384963,-0.545893c1.008402,-0.776529 2.017405,-0.720506 2.441159,0.119272c0.268719,0.601556 0.37596,0.601556 0.37596,0.181686c0,-0.538762 0.209272,-0.601594 1.486394,-0.419813c2.023231,0.238127 2.339745,0.238127 3.085855,-0.062888c0.477391,-0.174916 0.638837,-0.118893 0.638837,0.36379c0,0.301015 0.155068,0.538781 0.37015,0.538781c0.160878,0 0.315929,-0.174935 0.315929,-0.357c0,-0.482682 0.853951,-0.720487 1.600045,-0.482682c0.578822,0.238127 0.632442,0.300901 0.477391,1.917151c-0.05362,0.965441 0,1.623077 0.101431,1.623077c0.107241,0 0.215082,-0.41987 0.215082,-1.021464c0,-1.014617 0.584648,-1.434146 0.79973,-0.601613c0.053637,0.300655 0.208672,0.181743 0.315929,-0.29377c0.268735,-1.25959 0.853951,-0.601973 0.692473,0.776529c-0.160861,1.140318 -0.160861,1.140318 0.31653,0.720449c0.268703,-0.181743 0.477375,-0.657579 0.477375,-0.958253c0,-0.300977 0.161478,-0.657958 0.375992,-0.783716c0.423738,-0.237709 0.901729,0.66452 0.746094,1.322422c-0.05362,0.300693 -0.05362,0.538762 0.101415,0.538762c0.107841,0 0.215099,-0.174878 0.215099,-0.300958c0,-0.174916 0.262877,-0.237804 0.585216,-0.118855c0.691905,0.181743 0.79332,0.664426 0.208688,0.958215c-0.155051,0.12608 -0.316513,0.41987 -0.316513,0.664843c0,0.41987 0.107825,0.41987 0.692473,0c0.954782,-0.720487 1.378536,-0.664843 1.540014,0.118855c0.107241,0.41987 0.316497,0.601935 0.531011,0.41987c0.215082,-0.06287 0.692473,0.182066 1.062623,0.601594c0.32234,0.356981 0.79973,0.657636 1.014813,0.657636c0.316513,0 0.316513,0.300996 0.208672,1.140679c-0.107241,0.902609 -0.107241,1.021464 0.215099,0.657674c0.423754,-0.594804 0.584648,-0.538819 0.740284,0.300579c0.05362,0.41987 0.42958,0.720828 0.853351,0.902571c0.477391,0.119272 0.740284,0.419851 0.740284,0.776851c0,0.363828 0.160861,0.783375 0.32234,1.021502c0.42377,0.419813 0.315929,1.679043 -0.161478,2.098894c-0.160861,0.125758 -0.370118,0.062888 -0.423754,-0.118855c-0.107241,-0.182104 -0.477391,-0.182104 -1.16988,0c-1.116244,0.41949 -1.324916,0.538724 -1.062607,1.084295c0.161462,0.356659 2.017973,0.237804 3.032218,-0.182066c0.316513,-0.181762 0.42377,0 0.42377,0.83974c0,0.601556 -0.107257,1.077487 -0.268135,1.077487c-0.107841,0 -0.209256,0.181724 -0.209256,0.482682c0,0.72079 0.262893,0.657579 0.955366,-0.181781c0.36955,-0.482682 0.584632,-0.601916 0.847525,-0.300901c0.268135,0.300901 0.32234,0.300901 0.32234,-0.181781c0,-0.29415 -0.107841,-0.538724 -0.268703,-0.538724c-0.101431,0 -0.209272,-0.238127 -0.209272,-0.475931c0,-0.30092 0.155636,-0.538724 0.370134,-0.538724c0.161462,0 0.375976,0.118855 0.375976,0.293789c0,0.182141 0.209256,0.419851 0.477975,0.482739c0.369566,0.182104 0.477391,0.41987 0.423754,1.140356c-0.107825,1.378407 0.107273,1.798315 0.901161,1.560549c0.375976,-0.119272 0.584632,0 0.42377,0.237766c-0.047794,0.118855 0,0.41987 0.107257,0.545533c0.430165,0.357019 0.268703,1.196436 -0.208688,1.196436c-0.585216,0 -0.74611,0.300901 -0.42958,0.839683c0.214498,0.300958 0.37596,0.356659 0.584632,0.118893c0.483801,-0.601594 0.585232,-0.118893 0.638853,2.281054c0,1.20315 0.107257,2.161782 0.214514,2.161782c0.262877,0 0.161462,1.322422 -0.214514,1.861146c-0.209256,0.300636 -0.209256,0.594406 -0.05362,0.839341c0.37596,0.538781 0,2.099008 -0.477991,2.099008c-0.423738,0 -1.223485,1.140318 -1.223485,1.679081c0,0.657996 -0.686063,0 -0.847525,-0.720506c-0.160878,-0.657617 -0.160878,-0.657617 -0.268719,-0.182066c-0.101415,0.545912 0.477975,2.224993 0.961209,2.700829c0.316497,0.363885 -0.268719,0.965441 -0.69249,0.720506c-0.215099,-0.118855 -0.316513,-0.475514 -0.316513,-0.83936c0,-1.021407 -1.330758,-3.596288 -2.339745,-4.561691c-0.536838,-0.475931 -1.014245,-1.014655 -1.014245,-1.19638c0,-0.363847 -1.70146,-1.497357 -2.656242,-1.861184c-0.531612,-0.182066 -0.69249,-0.118874 -0.69249,0.363828c0,0.356659 -0.101415,0.475514 -0.316513,0.356659c-0.477391,-0.237804 -0.692473,0.301015 -0.268703,0.83974c0.585216,0.657617 0.483801,1.441277 -0.155051,1.140318c-0.429597,-0.181743 -0.483233,-0.118912 -0.32234,0.90259c0.05362,0.594748 0.161462,1.378407 0.161462,1.735066c0,0.363847 0.107241,0.601651 0.214498,0.601651c0.155652,0 0.209256,-0.118912 0.101431,-0.300636c-0.05362,-0.182104 0.054221,-0.357 0.268703,-0.357c0.161478,0 0.316513,0.238089 0.316513,0.475855c0,0.244973 -0.20924,0.482682 -0.585216,0.419908c-0.315929,0 -0.584648,-0.174935 -0.584648,-0.293827c0,-0.54595 -1.432757,-4.261093 -1.856511,-4.806664c-0.477407,-0.594804 -0.160894,-0.776529 -3.933396,2.042909c-0.584632,0.41987 -1.223485,1.322422 -1.545824,1.980096c-0.262893,0.657579 -0.686647,1.322422 -0.901161,1.441277c-0.215082,0.118912 -1.008987,1.077487 -1.701476,2.098951c-2.978597,4.49848 -2.494796,5.037243 -2.286108,14.223912c0.901729,6.961278 0.901729,6.961278 0.901729,6.961278c-2.12523,0 -2.12523,0 -2.12523,0c-1.754512,0 -1.754512,0 -1.754512,0c0.160878,-6.422913 0.160878,-6.422913 0.160878,-6.422913c0.107241,-0.538364 0.161462,-1.62302 0.215099,-2.224671c0.05362,-0.356981 -1.49222,-1.917207 -1.438583,-2.273828c0,-0.300958 1.599461,0.538781 1.599461,0.237766c0.262877,-4.379626 0,-7.863887 -0.69249,-9.718206c-0.160878,-1.140375 -1.492204,-4.806304 -1.700876,-4.806304c-0.053637,0 -0.429597,-0.356981 -0.79973,-0.776851c-0.638869,-0.783337 -0.901161,-0.839398 -4.464991,-1.077487c-3.826122,-0.244613 -3.826122,-0.244613 -3.826122,-0.244613c-0.906988,0.839398 -0.906988,0.839398 -0.906988,0.839398c-0.531011,0.545893 -1.062607,0.902571 -1.217675,0.902571c-0.32234,0 -1.653666,1.259533 -2.232487,1.979982c-0.05362,0 -0.107241,-0.062775 -0.107241,-0.118855c-0.053637,0 -0.053637,0 -0.053637,-0.06287c-0.05362,-0.174878 -0.107825,-0.356981 -0.215082,-0.538724c0.32234,-0.300958 0.585216,-0.483024 0.692473,-0.419813c0.160878,0.118855 0.316513,0 0.316513,-0.301015c0,-0.300636 -0.316513,-0.419851 -1.164038,-0.300636c-1.014829,0.181781 -1.277706,0.244613 -1.438583,0.958272c-0.262893,0.363828 -0.316513,0.90259 -0.160878,1.32246c-0.054221,0.538724 -0.054221,0.902552 0,0.902552c0.05362,0 0.107241,-0.118855 0.268135,-0.244935c0,0.062888 0.05362,0.12608 0.107825,0.182066c-0.531596,0.181743 -0.800315,0.720506 -0.74611,1.25923c-0.268703,0.244935 -0.531596,0.363828 -0.853919,0.545571c0,0 0,-0.062832 -0.047811,-0.062832c0.209256,-0.538724 0.316513,-1.140375 0.370134,-2.042928c0.107841,-1.014655 0.05362,-1.679081 -0.107241,-1.679081c-0.107257,0 -0.215082,0.244935 -0.215082,0.601537c0.053604,0.301015 -0.047811,0.601651 -0.262325,0.657674c-0.161462,0.062832 -0.268703,-0.056023 -0.268703,-0.356659c0,-0.720828 -0.208688,-0.720828 -0.686663,-0.063192c-0.214498,0.244935 -0.638269,0.538762 -1.008402,0.664843c-0.483801,0.174878 -0.638853,0.055966 -0.853935,-0.601651c-0.160878,-0.538724 -0.268135,-1.140679 -0.160878,-1.378445c0.05362,-0.300958 0.05362,-0.545571 -0.155051,-0.545571c-0.585232,0 -0.161462,-0.958632 0.531011,-1.140698zm4.572232,-13.796873c-0.32234,-0.062832 -0.585232,-0.237766 -0.692473,-0.482701c-0.053637,-0.356981 -0.107257,-0.356981 -0.107257,0c0,0.244935 -0.215082,0.41987 -0.42377,0.482701c-0.37596,0 -0.37596,0.06287 0.053637,0.301015c0.262292,0.118855 0.531011,0.300579 0.584632,0.300579c0.047794,0 0.316513,-0.181724 0.585232,-0.300579c0.477391,-0.301015 0.477391,-0.301015 0,-0.301015zm42.152065,9.662183c0.101431,0.118912 0.208688,-0.063192 0.208688,-0.363828c0,-0.238089 -0.107257,-0.475893 -0.208688,-0.475893c-0.161446,0 -0.268703,0.118893 -0.268703,0.293789c0,0.182104 0.107257,0.427039 0.268703,0.545931zm-0.37596,0.538762c-0.05362,-0.182104 -0.316513,-0.419851 -0.531596,-0.419851c-0.155051,0 -0.262309,0.237747 -0.155051,0.419851c0.047794,0.181743 0.262877,0.300655 0.477391,0.300655c0.209256,0 0.262877,-0.118912 0.209256,-0.300655zm-0.477391,2.700507c0.160878,0 0.37596,-0.062832 0.37596,-0.118855c0,-0.12608 -0.215082,-0.244935 -0.37596,-0.363847c-0.209256,-0.118893 -0.37015,-0.056023 -0.37015,0.118912c0,0.182066 0.160894,0.36379 0.37015,0.36379zm0.42377,-5.70201c0.214498,-0.11895 0.322323,-0.300996 0.268135,-0.475931c-0.160894,-0.426659 -1.062055,-0.426659 -1.062055,0c0,0.475931 0.315945,0.657674 0.79392,0.475931zm-2.919135,-4.498897c-0.268719,0.182104 -0.429597,0.538762 -0.375992,0.720828c0.268719,0.47557 0.585249,0.356659 0.853367,-0.41987c0.262893,-0.720828 0.155636,-0.839683 -0.477375,-0.300958zm-1.014829,9.242332c1.384947,1.616192 1.438583,1.679081 1.438583,1.140356c0,-0.300636 -0.107257,-0.545571 -0.268719,-0.545571c-0.155035,0 -0.423754,-0.301015 -0.584632,-0.657617c-0.155068,-0.357038 -0.477391,-0.720885 -0.740284,-0.720885c-0.483217,0 -0.483217,0.063211 0.155051,0.783716zm-1.115676,-2.826625c0.321771,0 0.477407,-0.118855 0.268151,-0.174897c-0.160878,-0.118893 -0.42377,-0.118893 -0.584648,0c-0.161478,0.056042 0,0.174897 0.316497,0.174897zm-1.539998,-8.157676c0.160878,0.181781 0.638269,0.419547 1.062023,0.538781c0.746126,0.181724 0.799747,0.181724 0.375976,-0.300958c-0.483217,-0.594804 -1.808133,-0.776529 -1.437999,-0.237823zm-3.24149,-9.955915c-0.160878,0.174878 -0.214498,0.538724 -0.160878,0.776472c0.107257,0.482739 0.42377,0.062888 0.42377,-0.657617c0,-0.363847 -0.053637,-0.41987 -0.262893,-0.118855zm1.593635,12.957475c0.42377,0.300598 0.585232,0.300598 0.800331,-0.119234c0.423754,-0.657655 0.155035,-0.958253 -0.638869,-0.538706c-0.638853,0.294112 -0.638853,0.294112 -0.161462,0.65794zm-1.062023,-3.00156c0.79973,-0.65756 0.79973,-0.65756 0.160878,-0.65756c-0.429597,0 -0.74611,0.237709 -0.906988,0.65756c-0.101431,0.419547 -0.209256,0.657674 -0.155636,0.657674c0,0 0.42377,-0.357019 0.901746,-0.657674zm-1.16988,9.725071c0.36955,0.657674 1.008419,0.657674 0.79973,-0.06287c-0.05362,-0.238089 -0.107825,-0.538724 -0.107825,-0.601935c0,-0.056023 -0.214514,-0.056023 -0.477391,0.063211c-0.429597,0.118893 -0.429597,0.300636 -0.214514,0.601594zm-1.647839,-2.462778c0.423754,0.657655 0.638853,0.720487 1.116244,0.237804c0.316513,-0.300636 0.316513,-0.300636 0,-0.356659c-0.160878,0 -0.584648,-0.063211 -0.954782,-0.182104c-0.531596,-0.237766 -0.531596,-0.237766 -0.161462,0.300958zm-0.05362,-6.541787c0.268703,0 0.585216,-0.958575 0.42377,-1.259211c-0.208688,-0.300958 -0.638285,0.181724 -0.638285,0.720487c0,0.300977 0.107257,0.538724 0.214514,0.538724zm-2.602053,4.07899c-0.32234,0.244935 -0.268703,0.301015 0.155068,0.301015c0.268703,0 0.584632,-0.119272 0.692473,-0.301015c0.160861,-0.475836 -0.37015,-0.475836 -0.847541,0zm0.053637,5.282235c0.047794,0.063211 0.208672,-0.06287 0.370134,-0.356659c0.160861,-0.244935 0.638285,-0.545893 1.008402,-0.664805c0.477391,-0.181781 0.69249,-0.475552 0.69249,-0.90259c0,-1.014238 -0.74611,-0.713659 -1.54003,0.601954c-0.322323,0.664482 -0.584632,1.203245 -0.530995,1.3221zm-0.585216,-2.763414c0.477375,-0.657579 0.477375,-0.776851 0.101399,-0.958594c-0.423754,-0.237804 -0.739683,0.301015 -0.739683,1.25923c-0.054205,0.720828 -0.054205,0.720828 0.638285,-0.300636zm-0.853367,-7.080493c0.05362,0.482682 0.160878,0.419851 0.477375,-0.475893c0.375992,-0.958272 0.375992,-1.084352 0.053637,-1.084352c-0.208672,0 -0.42377,0.181781 -0.477391,0.482758c-0.107257,0.237747 -0.107257,0.783698 -0.05362,1.077487zm-0.262893,-4.918407c0,0.244613 0.101415,0.839398 0.209256,1.25923c0.160878,0.839721 0.160878,0.839721 0.32234,0.118893c0.208672,-0.720449 0,-1.797936 -0.32234,-1.797936c-0.155636,0 -0.209256,0.181686 -0.209256,0.419813zm-3.724123,1.979717c-0.262877,0.41987 -0.262877,0.83974 -0.054205,2.098951c0.107841,0.902571 0.37656,1.805161 0.531596,1.980096c0.268719,0.300958 0.32234,0 0.37596,-1.860862c0,-2.273885 -0.268703,-2.994656 -0.853351,-2.218185zm0.477391,6.360044c0.053637,0.118912 0.160878,-0.118893 0.107257,-0.475874c0,-0.363847 -0.05362,-0.41987 -0.160878,-0.181743c-0.047811,0.237766 -0.047811,0.538724 0.05362,0.657617zm1.915974,-5.639216c-0.05362,0.118912 -0.05362,0.958632 0.107257,1.860862c0.161462,1.560549 0.209256,1.62338 0.262893,0.483024c0.05362,-1.861184 -0.053637,-2.763737 -0.37015,-2.343886zm-1.808717,16.924475c0.32234,-0.720828 0.853367,-1.924073 1.223501,-2.644844c0.423754,-0.776586 0.692473,-1.797992 0.79973,-2.819456c0.155636,-1.616249 0.155636,-1.616249 0.155636,-1.616249c-0.638853,0.895744 -0.638853,0.895744 -0.638853,0.895744c-0.316513,0.482739 -0.531028,1.021464 -0.531028,1.203245c0,0.475855 -1.008987,3.477358 -1.3255,4.01612c-0.160878,0.300579 -0.429597,0.965441 -0.477391,1.441277c-0.268719,1.378161 0.209256,1.140356 0.793904,-0.475836zm-3.772502,6.17794c0.161462,1.196342 0.161462,1.196342 0.69249,-1.378464c0.316513,-1.385329 0.793904,-3.603097 1.116244,-4.98158c0.423754,-1.741969 0.585216,-3.183246 0.585216,-5.219308c0,-2.644578 -0.054205,-2.700602 -0.477959,-2.399586c-0.960624,0.77651 -1.49222,2.938292 -1.706734,7.136136c-0.101415,2.162199 -0.209256,4.323982 -0.316497,4.799875c-0.053637,0.482701 0,1.385292 0.107241,2.042928zm0.107841,-15.357441c0.208672,0.594786 0.42377,1.077487 0.42377,1.077487c0.05362,0 0.315913,-0.363847 0.531011,-0.839683c0.268703,-0.419528 0.692473,-0.90223 0.853367,-1.077164c0.63301,-0.545893 0.793888,-2.224974 0.262877,-3.365331c-0.42377,-1.021464 -1.593635,-2.162162 -1.808733,-1.798315c-0.107241,0.118893 -0.262292,1.25959 -0.370134,2.58169c-0.214498,1.980039 -0.214498,2.581955 0.107841,3.421316zm-0.32234,-13.741134c0.107257,0.119234 0.214498,0.056023 0.214498,-0.125701c0,-0.238127 -0.107241,-0.475931 -0.214498,-0.594804c-0.161462,-0.126061 -0.262893,-0.06287 -0.262893,0.174935c0,0.181743 0.101431,0.41987 0.262893,0.545571zm-17.220479,16.133874c0.740268,0.063192 0.740268,0.063192 0.740268,0.063192c0.74611,0 1.49222,-0.776851 1.49222,-1.441277c0,-0.41987 -0.05362,-0.41987 -2.232487,1.378085zm0.316513,-1.6791c0,0.18216 0.107257,0.363847 0.268719,0.363847c0.262309,0 1.008402,-1.077487 0.847525,-1.259211c-0.161462,-0.244935 -1.116244,0.538706 -1.116244,0.895364zm0.585216,-4.134956c0.799747,1.196664 1.16988,1.315557 1.593635,0.538706c0.429597,-0.720449 0.053637,-1.203188 -1.224069,-1.378123c-1.062039,-0.182104 -1.062039,-0.182104 -0.369566,0.839417zm-0.585216,-3.365027c0,0.125701 0.37596,0.41949 0.79973,0.664426c1.963785,1.140375 2.339745,1.140375 2.286108,0.05608c0,-0.657674 -0.79973,-2.098989 -1.116244,-2.098989c-0.37596,0 -1.969595,1.140356 -1.969595,1.378483zm2.87134,8.521504c0.584648,0 0.638269,-0.181781 0.160878,-0.47557c-0.215082,-0.063192 -0.42377,0 -0.477391,0.174935c-0.107841,0.181686 0.05362,0.300636 0.316513,0.300636zm0.42377,-14.09785c-0.37015,-0.300996 -0.848125,-0.419851 -1.062623,-0.300996c-0.370134,0.238127 -0.316513,0.300996 0.214498,0.482682c0.262893,0.119272 0.800331,0.238146 1.062623,0.294169c0.316513,0 0.316513,-0.119234 -0.214498,-0.475855zm-0.047794,2.161782c0.315913,0 0.370134,-0.06287 0.155051,-0.244613c-0.155051,-0.055985 -0.37015,-0.055985 -0.477407,0.062888c-0.05362,0.118855 0.107257,0.237804 0.322356,0.181724zm0.315913,1.378502c-0.746094,0 -0.746094,0.055966 -0.315913,0.538706c0.531011,0.538724 0.686063,0.601556 0.901161,0.237766c0.370118,-0.47557 0.107241,-0.776472 -0.585249,-0.776472zm1.06264,-6.779591c-0.215099,-0.300958 -0.268719,0.237804 -0.160894,0.895421c0.05362,0.41987 0.268135,0.78366 0.375976,0.78366c0.208672,0 0.05362,-1.322422 -0.215082,-1.679081zm1.700876,7.919853c-0.107241,0.05608 0.161462,0.41987 0.477975,0.720866c0.32234,0.300636 0.584632,0.419509 0.584632,0.237766c0,-0.419813 -0.901145,-1.20351 -1.062607,-0.958632zm-1.330758,0.41987c-0.477391,0.419908 -0.208672,1.497338 0.483233,1.679119c0.370134,0.118874 0.955366,0.601613 1.3255,1.077449c0.32234,0.482739 0.584632,0.664843 0.584632,0.482739c0,-0.601594 -2.124646,-3.484242 -2.393365,-3.239307zm2.178867,4.981637c-0.316497,-0.965801 -0.686647,-1.441372 -1.379137,-1.74233c-0.531011,-0.237766 -1.062607,-0.36379 -1.223485,-0.300598c-0.161462,0.062832 0.477391,0.83936 1.384963,1.741931c1.700876,1.560226 1.700876,1.560226 1.217658,0.300996zm2.822962,-9.24237c-0.107257,0 -0.215099,0.237804 -0.215099,0.47557c0,0.300958 0.107841,0.482739 0.215099,0.482739c0.155051,0 0.262893,-0.181781 0.262893,-0.482739c0,-0.237766 -0.107841,-0.47557 -0.262893,-0.47557zm-0.483217,4.918407c0,0.419813 0.906988,0.118893 1.277121,-0.41987c0.531028,-0.902552 0.477391,-1.140356 -0.215082,-1.140356c-0.477391,0 -1.062039,0.839759 -1.062039,1.560226zm1.54584,-12.957532c-0.161462,0.776529 -0.268719,1.434146 -0.215082,1.497357c0.161446,0.237804 0.585232,-1.560188 0.585232,-2.281016c0,-0.300636 -0.161478,0.063211 -0.37015,0.78366zm2.763515,12.117792c-0.268719,0 -0.477407,0.119272 -0.477407,0.356981c0,0.181781 0.155051,0.301015 0.315929,0.301015c0.215082,0 0.42377,-0.119234 0.477975,-0.301015c0.107257,-0.237709 -0.054205,-0.356981 -0.316497,-0.356981zm-0.638869,11.278394c0.316513,1.084675 0.793904,2.098951 1.062623,2.343886c0.268719,0.181781 0.79973,1.021502 1.116244,1.861184c0.316513,0.839398 0.638853,1.497034 0.69249,1.497034c0.262292,0 -0.268719,-5.520001 -0.638853,-7.199404c-0.322356,-1.440954 -0.423787,-2.763414 -0.37015,-4.862365c0.047794,-1.560188 0,-2.938671 -0.107241,-3.057545c-0.053637,-0.118893 -0.42377,-0.118893 -0.74611,0c-0.585232,0.237766 -0.638853,0.41987 -0.638853,1.742292c0,1.014295 -0.107273,1.560226 -0.37015,1.797936c-0.746094,0.538781 -0.692473,3.596307 0,5.876982zm-1.539998,-8.038746c-0.107257,-0.902571 -0.214498,-1.021464 -0.79973,-1.021464c-0.69249,0 -0.69249,0.06287 -0.638853,1.3221c0,0.776851 0.107825,1.679403 0.161446,2.098932c0.053637,0.41987 0.262893,0.839683 0.477407,0.902571c0.423754,0.300996 0.901145,-1.797936 0.79973,-3.302139zm-0.79973,6.058706c-0.477407,-0.720506 -0.79973,-1.497034 -0.847541,-1.679081c0,-0.237766 -0.268703,-0.83936 -0.584648,-1.378123c-0.32234,-0.538724 -0.692473,-1.203529 -0.853935,-1.441334c-0.531011,-0.839683 -0.42377,-0.118855 0.161462,1.741969c0.370134,1.259533 1.008419,2.399909 1.754512,3.358484c1.37912,1.623058 1.540014,1.322156 0.37015,-0.601916zm-0.847541,2.94548c0.578822,0 0.531028,-0.062832 -0.268703,-1.021407c-0.531028,-0.601651 -0.901161,-1.259268 -0.901161,-1.560245c0,-0.237747 -0.69249,-1.084333 -1.492204,-1.860862c-0.79392,-0.783641 -1.54003,-1.560169 -1.647271,-1.798258c-0.107841,-0.300636 -0.161462,-0.300636 -0.161462,0.056023c0,0.363847 -0.262309,0.419813 -1.116244,0.237766c-0.584648,-0.118912 -1.062039,-0.118912 -1.062039,-0.055701c0,0.118893 0.214498,0.839398 0.429597,1.560169c0.37015,1.196398 0.531011,1.441372 1.700892,1.916904c0.740284,0.300958 1.910132,1.021445 2.656242,1.560169c0.69249,0.54595 1.540014,0.965441 1.862354,0.965441zm-8.296923,2.036062c0.215082,0 0.531596,-0.118855 0.746094,-0.300901c0.37015,-0.419547 0.054221,-0.419547 -0.638269,0c-0.316513,0.182047 -0.370134,0.23807 -0.107825,0.300901zm-0.584648,-1.497338c0.531028,-0.244575 2.232487,-0.482701 3.778328,-0.482701c2.918567,-0.056023 3.503783,-0.237709 2.333902,-0.601594c-0.370118,-0.118855 -1.217658,-0.41987 -1.910132,-0.720506c-1.223501,-0.538724 -3.724707,-0.356981 -3.987016,0.24467c-0.054205,0.119177 -0.32234,0.182047 -0.585216,0.119177c-0.531028,-0.182066 -1.062623,0.300674 -1.223501,1.259268c-0.215082,0.776472 0.160878,0.839683 1.593635,0.181686zm-4.249893,1.378483c0.107257,0.482739 0.638853,0.538724 1.062623,0.118855c0.262292,-0.237747 0.262292,-0.356602 0,-0.720449c-0.215082,-0.357038 -0.370134,-0.357038 -0.692473,-0.056023c-0.215082,0.174935 -0.37015,0.47557 -0.37015,0.657617zm-1.700892,4.197901c0.208688,0 0.315945,0.181781 0.208688,0.538762c-0.047811,0.244935 -0.208688,0.482701 -0.316513,0.482701c-0.160878,0 -0.262309,-0.237766 -0.262309,-0.482701c0,-0.293789 0.155051,-0.538762 0.370134,-0.538762z" stroke-width="0" stroke="#0d3752" fill="none"/>
  <path id="svg_7" d="m-64.042369,57.464995c-0.195186,0 -0.295512,-0.269204 -0.295512,-0.592029c0,-0.269142 0.050155,-0.530448 0.195186,-0.530448c0.100326,0 0.251353,0.261306 0.301508,0.530448c0.100326,0.391866 0,0.592029 -0.201182,0.592029zm33.36503,15.360472c0.446554,0 0.546864,0.069041 0.295512,0.530386c-0.145031,0.322824 -0.446539,0.591966 -0.59157,0.591966c-0.151012,0 -0.301508,-0.269142 -0.301508,-0.591966c0,-0.330743 0.201198,-0.530386 0.597566,-0.530386zm-31.176494,-18.789317c-0.446539,-0.130622 -0.496709,-0.792067 0,-0.991772c0.251338,-0.061497 0.396384,0.130601 0.396384,0.530448c0,0.330702 -0.145046,0.522884 -0.396384,0.461324zm-5.566207,20.895585c0.597566,-0.192203 0.597566,-0.330348 0.396384,-0.784169c-0.150496,-0.330348 -0.200651,-0.730153 -0.100326,-0.860796c0.050155,-0.200059 0.301508,0 0.446539,0.391907c0.201182,0.530448 0.351663,0.599906 0.748047,0.269142c0.245903,-0.199684 0.446539,-0.33066 0.446539,-0.130601c0,0.130601 0.151027,0 0.346213,-0.269142c0.301523,-0.391907 0.351678,-1.253057 0.05017,-1.714423c-0.245357,-0.391907 -1.490644,-0.261265 -1.836857,0.199684c-0.200651,0.330764 -0.351678,0.261681 -0.546864,-0.330285c-0.301508,-0.984291 -0.301508,-1.122477 0.396369,-1.183974c0.597566,0 0.597566,0 0.100326,-0.399806c-0.250806,-0.192203 -0.496694,-0.591966 -0.496694,-0.853273c0,-0.661404 0.692427,-1.053311 0.993935,-0.591946c0.100326,0.192161 0.295527,0.391907 0.496709,0.391907c0.396384,0 2.288846,-2.236994 2.288846,-2.698359c0,-0.200038 0.195733,-0.330639 0.396384,-0.200038c0.245888,0.069437 0.692442,-0.130601 1.144977,-0.461365c0.641725,-0.530407 0.641725,-0.591966 0.295512,-1.452762c-0.245357,-0.591966 -0.546864,-0.792067 -1.244756,-0.792067c-0.792752,0 -0.993935,0.130664 -1.239291,0.922731c-0.100872,0.530386 -0.402365,0.922314 -0.597566,0.922314c-0.346213,0 -0.446539,-0.591612 -0.100326,-0.922314c0.150481,-0.130664 0.250806,-0.591966 0.250806,-1.053332c0,-0.722651 -0.100326,-0.853273 -0.748047,-0.661049c-0.647721,0.130601 -0.647721,0.069041 -0.496709,-0.922772c0.100326,-0.591946 0.245357,-1.122352 0.346229,-1.183912c0.100326,-0.069041 0.200636,-0.661049 0.200636,-1.253016c0,-1.184037 0.296058,-1.383721 0.843469,-0.530448c0.250791,0.461345 0.401833,0.530448 0.496694,0.130601c0.100326,-0.261265 0.451989,-0.322824 0.999399,-0.192223c0.742597,0.261306 0.792752,0.192223 0.692427,-0.591966c-0.050155,-0.461303 -0.100857,-0.991751 -0.151012,-1.122352c0,-0.199746 -0.245357,-0.461365 -0.541415,-0.661112c-0.597566,-0.330639 -0.748047,-1.122352 -0.201182,-1.122352c0.151027,0 0.296043,-0.130664 0.296043,-0.392324c0,-0.199746 0.301523,-0.330348 0.697892,-0.269184c0.547411,0.069437 0.842923,-0.192119 1.590969,-1.575778c0.547411,-0.991814 0.943779,-1.52222 0.99395,-1.253078c0.050155,0.330348 0.301508,0.522508 0.547396,0.522508c0.396384,0 0.446554,-0.192161 0.301523,-1.052957c-0.050702,-0.592008 -0.301523,-1.314576 -0.452535,-1.64534c-0.446554,-0.730445 -0.446554,-1.583717 0,-1.322515c0.351663,0.261681 1.445923,-0.460949 1.445923,-0.922293c0,-0.200059 0.145578,-0.330702 0.346213,-0.330702c0.201198,0 0.296058,0.399785 0.296058,0.92271c0,0.661049 0.100326,0.922356 0.351678,0.730132c0.195186,-0.138166 0.346229,-0.530448 0.346229,-0.791692c0,-0.792109 1.590954,-2.175788 1.987323,-1.783526c0.151042,0.130705 0.301508,0 0.35224,-0.461303c0.145016,-0.92271 1.043543,-1.64534 1.439912,-1.183974c0.201198,0.192161 0.396399,0.130664 0.447101,-0.069041c0.10031,-0.261661 0.496694,-0.461365 0.943233,-0.522967c0.446539,-0.069041 1.044105,-0.330702 1.295458,-0.599844c0.943233,-0.853273 1.887028,-0.791713 2.283396,0.13106c0.251353,0.661008 0.351663,0.661008 0.351663,0.199642c0,-0.592008 0.195748,-0.661049 1.390334,-0.461303c1.892477,0.261661 2.188535,0.261661 2.886427,-0.069104c0.446539,-0.192203 0.597551,-0.130643 0.597551,0.399743c0,0.330764 0.145046,0.592029 0.346229,0.592029c0.150481,0 0.295512,-0.192223 0.295512,-0.392282c0,-0.530386 0.798764,-0.791692 1.49664,-0.530386c0.541415,0.261661 0.59157,0.330639 0.446539,2.106622c-0.050155,1.060855 0,1.783485 0.094876,1.783485c0.10031,0 0.201182,-0.461365 0.201182,-1.122415c0,-1.114892 0.546864,-1.575882 0.748047,-0.66107c0.05017,0.330368 0.195186,0.199705 0.295512,-0.322804c0.251368,-1.384075 0.798764,-0.661466 0.647721,0.853273c-0.150466,1.253016 -0.150466,1.253016 0.296073,0.79165c0.251338,-0.199705 0.446524,-0.722567 0.446524,-1.052957c0,-0.330723 0.151042,-0.722984 0.351693,-0.861171c0.396353,-0.261202 0.843454,0.730195 0.697876,1.453116c-0.050155,0.33041 -0.050155,0.592008 0.094861,0.592008c0.100872,0 0.201198,-0.192161 0.201198,-0.330702c0,-0.192203 0.245888,-0.261306 0.547396,-0.130601c0.64719,0.199705 0.742051,0.730091 0.195201,1.052915c-0.145031,0.138541 -0.296058,0.461365 -0.296058,0.730549c0,0.461365 0.100857,0.461365 0.647721,0c0.893078,-0.791692 1.289446,-0.730549 1.440489,0.130601c0.10031,0.461365 0.296043,0.661424 0.496694,0.461365c0.201182,-0.069083 0.647721,0.200059 0.99395,0.661049c0.301508,0.392262 0.748047,0.72263 0.949229,0.72263c0.296058,0 0.296058,0.330743 0.195186,1.253412c-0.10031,0.991814 -0.10031,1.122415 0.201198,0.722672c0.396369,-0.653589 0.546864,-0.592071 0.692442,0.330285c0.050155,0.461365 0.401818,0.792067 0.798202,0.991772c0.446539,0.13106 0.692442,0.461345 0.692442,0.853627c0,0.399785 0.150466,0.860796 0.301508,1.122456c0.396384,0.461303 0.295512,1.844982 -0.151042,2.306327c-0.150466,0.138187 -0.346198,0.069104 -0.396369,-0.130601c-0.10031,-0.200101 -0.446539,-0.200101 -1.094275,0c-1.044105,0.460949 -1.239291,0.591966 -0.993935,1.191456c0.151027,0.391907 1.887559,0.261306 2.836257,-0.200059c0.296058,-0.199726 0.396384,0 0.396384,0.922731c0,0.661008 -0.100326,1.183974 -0.250806,1.183974c-0.100872,0 -0.195733,0.199684 -0.195733,0.530386c0,0.792025 0.245903,0.722567 0.893624,-0.199746c0.345667,-0.530386 0.546849,-0.661404 0.792752,-0.330639c0.250806,0.330639 0.301508,0.330639 0.301508,-0.199746c0,-0.32322 -0.100872,-0.591966 -0.251338,-0.591966c-0.094876,0 -0.195748,-0.261661 -0.195748,-0.522967c0,-0.33066 0.145578,-0.591966 0.346213,-0.591966c0.151027,0 0.351678,0.130601 0.351678,0.322824c0,0.200142 0.195733,0.461345 0.447085,0.530448c0.345682,0.200101 0.446539,0.461365 0.396369,1.253057c-0.100857,1.514635 0.100341,1.976042 0.842923,1.714777c0.351678,-0.13106 0.546849,0 0.396384,0.261265c-0.044706,0.130601 0,0.461365 0.100326,0.599448c0.402365,0.392303 0.251338,1.31468 -0.195201,1.31468c-0.547396,0 -0.697892,0.330639 -0.401818,0.922668c0.200636,0.330702 0.351663,0.391907 0.546849,0.130643c0.452535,-0.661049 0.547411,-0.130643 0.597566,2.50649c0,1.322057 0.100326,2.37543 0.200651,2.37543c0.245888,0 0.151027,1.453116 -0.200651,2.045083c-0.195733,0.330348 -0.195733,0.653151 -0.050155,0.922293c0.351663,0.592029 0,2.306452 -0.447101,2.306452c-0.396353,0 -1.144415,1.253016 -1.144415,1.845024c0,0.723026 -0.641725,0 -0.792752,-0.791713c-0.150481,-0.722609 -0.150481,-0.722609 -0.251353,-0.200059c-0.094861,0.599865 0.447085,2.444888 0.899089,2.967751c0.296043,0.399847 -0.251353,1.060855 -0.647736,0.791713c-0.201198,-0.130601 -0.296058,-0.522508 -0.296058,-0.922314c0,-1.122352 -1.244756,-3.951708 -2.188535,-5.012521c-0.502144,-0.522967 -0.948698,-1.114933 -0.948698,-1.314617c0,-0.399806 -1.591501,-1.64534 -2.484579,-2.045125c-0.497256,-0.200059 -0.647736,-0.130622 -0.647736,0.399785c0,0.391907 -0.094861,0.522508 -0.296058,0.391907c-0.446539,-0.261306 -0.647721,0.330764 -0.251338,0.922731c0.547396,0.722609 0.452535,1.583717 -0.145031,1.253016c-0.401833,-0.199705 -0.452004,-0.130664 -0.301508,0.991793c0.050155,0.653526 0.151027,1.514635 0.151027,1.906542c0,0.399806 0.10031,0.661112 0.200636,0.661112c0.145593,0 0.195733,-0.130664 0.094876,-0.330348c-0.050155,-0.200101 0.050717,-0.392282 0.251338,-0.392282c0.151042,0 0.296058,0.261619 0.296058,0.522884c0,0.269184 -0.195718,0.530386 -0.547396,0.461407c-0.295512,0 -0.546864,-0.192223 -0.546864,-0.322866c0,-0.599906 -1.340163,-4.682215 -1.736532,-5.281705c-0.446554,-0.653589 -0.150496,-0.853273 -3.679195,2.244808c-0.546849,0.461365 -1.144415,1.453116 -1.445923,2.175788c-0.245903,0.722567 -0.642272,1.453116 -0.842923,1.583717c-0.201182,0.130664 -0.943779,1.183974 -1.591516,2.306389c-2.786102,4.943063 -2.333567,5.535071 -2.138365,15.629655c0.843454,7.649258 0.843454,7.649258 0.843454,7.649258c-1.987884,0 -1.987884,0 -1.987884,0c-1.641125,0 -1.641125,0 -1.641125,0c0.150481,-7.057687 0.150481,-7.057687 0.150481,-7.057687c0.10031,-0.59157 0.151027,-1.783422 0.201198,-2.444534c0.050155,-0.392262 -1.395783,-2.106684 -1.345613,-2.49855c0,-0.330702 1.496094,0.592029 1.496094,0.261265c0.245888,-4.812462 0,-8.641071 -0.647736,-10.678652c-0.150481,-1.253078 -1.395768,-5.281309 -1.590954,-5.281309c-0.05017,0 -0.401833,-0.392262 -0.748047,-0.853627c-0.597581,-0.860754 -0.842923,-0.922356 -4.176435,-1.183974c-3.578854,-0.268788 -3.578854,-0.268788 -3.578854,-0.268788c-0.848372,0.922356 -0.848372,0.922356 -0.848372,0.922356c-0.496694,0.599844 -0.993935,0.991772 -1.138981,0.991772c-0.301508,0 -1.546795,1.384013 -2.08821,2.175663c-0.050155,0 -0.10031,-0.068979 -0.10031,-0.130601c-0.05017,0 -0.05017,0 -0.05017,-0.069083c-0.050155,-0.192161 -0.100857,-0.392262 -0.201182,-0.591966c0.301508,-0.330702 0.547396,-0.530761 0.647721,-0.461303c0.150481,0.130601 0.296058,0 0.296058,-0.330764c0,-0.330348 -0.296058,-0.461345 -1.08881,-0.330348c-0.949244,0.199746 -1.195132,0.268788 -1.345613,1.052977c-0.245903,0.399785 -0.296058,0.991793 -0.150481,1.453158c-0.050717,0.591966 -0.050717,0.991751 0,0.991751c0.050155,0 0.10031,-0.130601 0.250806,-0.269142c0,0.069104 0.050155,0.138541 0.100857,0.200059c-0.497241,0.199705 -0.748593,0.791713 -0.697892,1.383679c-0.251338,0.269142 -0.497241,0.399785 -0.798733,0.599489c0,0 0,-0.069041 -0.044721,-0.069041c0.195733,-0.591966 0.296058,-1.253078 0.346213,-2.244829c0.100872,-1.114933 0.050155,-1.845024 -0.10031,-1.845024c-0.100326,0 -0.201182,0.269142 -0.201182,0.660987c0.05014,0.330764 -0.044721,0.661112 -0.245372,0.722672c-0.151027,0.069041 -0.251338,-0.06156 -0.251338,-0.391907c0,-0.792067 -0.195201,-0.792067 -0.642287,-0.069437c-0.200636,0.269142 -0.59702,0.592008 -0.943233,0.730549c-0.452535,0.192161 -0.597566,0.061497 -0.798748,-0.661112c-0.150481,-0.591966 -0.250806,-1.253412 -0.150481,-1.514676c0.050155,-0.330702 0.050155,-0.599489 -0.145031,-0.599489c-0.547411,0 -0.151027,-1.053373 0.496694,-1.253432zm4.276745,-15.160413c-0.301508,-0.069041 -0.547411,-0.261265 -0.647721,-0.530407c-0.05017,-0.392262 -0.100326,-0.392262 -0.100326,0c0,0.269142 -0.201182,0.461365 -0.396384,0.530407c-0.351663,0 -0.351663,0.069083 0.05017,0.330764c0.245341,0.130601 0.496694,0.330285 0.546849,0.330285c0.044706,0 0.296058,-0.199684 0.547411,-0.330285c0.446539,-0.330764 0.446539,-0.330764 0,-0.330764zm39.427931,10.617092c0.094876,0.130664 0.195201,-0.069437 0.195201,-0.399785c0,-0.261619 -0.100326,-0.522925 -0.195201,-0.522925c-0.151012,0 -0.251338,0.130643 -0.251338,0.322824c0,0.200101 0.100326,0.469243 0.251338,0.599885zm-0.351663,0.592008c-0.050155,-0.200101 -0.296058,-0.461345 -0.497241,-0.461345c-0.145031,0 -0.245357,0.261244 -0.145031,0.461345c0.044706,0.199705 0.245888,0.330368 0.446539,0.330368c0.195733,0 0.245888,-0.130664 0.195733,-0.330368zm-0.446539,2.967397c0.150481,0 0.351663,-0.069041 0.351663,-0.130601c0,-0.138541 -0.201182,-0.269142 -0.351663,-0.399806c-0.195733,-0.130643 -0.346229,-0.06156 -0.346229,0.130664c0,0.200059 0.150496,0.399743 0.346229,0.399743zm0.396384,-6.265537c0.200636,-0.130705 0.301493,-0.330743 0.250806,-0.522967c-0.150496,-0.468826 -0.993419,-0.468826 -0.993419,0c0,0.522967 0.295527,0.722672 0.742612,0.522967zm-2.730482,-4.943522c-0.251353,0.200101 -0.401833,0.592008 -0.351693,0.792067c0.251353,0.522571 0.547426,0.391907 0.798217,-0.461365c0.245903,-0.792067 0.145578,-0.922668 -0.446524,-0.330702zm-0.949244,10.155748c1.295443,1.77592 1.345613,1.845024 1.345613,1.253057c0,-0.330348 -0.100326,-0.599489 -0.251353,-0.599489c-0.145016,0 -0.396369,-0.330764 -0.546849,-0.722609c-0.145046,-0.392324 -0.446539,-0.79213 -0.692442,-0.79213c-0.451989,0 -0.451989,0.069458 0.145031,0.861171zm-1.043574,-3.105979c0.300977,0 0.446554,-0.130601 0.250821,-0.192182c-0.150481,-0.130643 -0.396384,-0.130643 -0.546864,0c-0.151042,0.061581 0,0.192182 0.296043,0.192182zm-1.440474,-8.963896c0.150481,0.199746 0.59702,0.461011 0.993388,0.592029c0.697907,0.199684 0.748062,0.199684 0.351678,-0.330702c-0.451989,-0.653589 -1.69128,-0.853273 -1.345066,-0.261327zm-3.032005,-10.939854c-0.150481,0.192161 -0.200636,0.591966 -0.150481,0.85321c0.100326,0.530448 0.396384,0.069104 0.396384,-0.722609c0,-0.399806 -0.05017,-0.461365 -0.245903,-0.130601zm1.490644,14.238057c0.396384,0.330306 0.547411,0.330306 0.748608,-0.131018c0.396369,-0.722651 0.145016,-1.052957 -0.597581,-0.591946c-0.597566,0.323179 -0.597566,0.323179 -0.151027,0.722963zm-0.993388,-3.298203c0.748047,-0.722547 0.748047,-0.722547 0.150481,-0.722547c-0.401833,0 -0.697892,0.261202 -0.848372,0.722547c-0.094876,0.461011 -0.195733,0.722672 -0.145578,0.722672c0,0 0.396384,-0.392303 0.843469,-0.722672zm-1.094275,10.686196c0.345667,0.722672 0.943248,0.722672 0.748047,-0.069083c-0.050155,-0.261619 -0.100857,-0.591966 -0.100857,-0.661424c0,-0.06156 -0.200651,-0.06156 -0.446539,0.069458c-0.401833,0.130643 -0.401833,0.330348 -0.200651,0.661049zm-1.541346,-2.706174c0.396369,0.722651 0.597566,0.791692 1.044105,0.261306c0.296058,-0.330348 0.296058,-0.330348 0,-0.391907c-0.150481,0 -0.546864,-0.069458 -0.893078,-0.200101c-0.497241,-0.261265 -0.497241,-0.261265 -0.151027,0.330702zm-0.050155,-7.188309c0.251338,0 0.547396,-1.053311 0.396384,-1.383658c-0.195201,-0.330702 -0.597035,0.199684 -0.597035,0.791692c0,0.330723 0.100326,0.591966 0.200651,0.591966zm-2.433892,4.482115c-0.301508,0.269142 -0.251338,0.330764 0.145046,0.330764c0.251338,0 0.546849,-0.13106 0.647721,-0.330764c0.150466,-0.522863 -0.346229,-0.522863 -0.792767,0zm0.05017,5.804276c0.044706,0.069458 0.195186,-0.069083 0.346213,-0.391907c0.150466,-0.269142 0.597035,-0.599844 0.943233,-0.730507c0.446539,-0.199746 0.647736,-0.52255 0.647736,-0.991793c0,-1.114475 -0.697892,-0.78419 -1.440504,0.661445c-0.301493,0.730153 -0.546849,1.322161 -0.496679,1.452762zm-0.547396,-3.036521c0.446524,-0.722567 0.446524,-0.853627 0.094845,-1.053332c-0.396369,-0.261306 -0.69188,0.330764 -0.69188,1.383679c-0.050702,0.792067 -0.050702,0.792067 0.597035,-0.330348zm-0.798217,-7.780255c0.050155,0.530386 0.150481,0.461345 0.446524,-0.522925c0.351693,-1.052977 0.351693,-1.191518 0.05017,-1.191518c-0.195186,0 -0.396384,0.199746 -0.446539,0.530469c-0.100326,0.261244 -0.100326,0.86115 -0.050155,1.183974zm-0.245903,-5.404491c0,0.268788 0.094861,0.922356 0.195733,1.383679c0.150481,0.92271 0.150481,0.92271 0.301508,0.130643c0.195186,-0.79165 0,-1.975625 -0.301508,-1.975625c-0.145578,0 -0.195733,0.199642 -0.195733,0.461303zm-3.483447,2.175371c-0.245888,0.461365 -0.245888,0.922731 -0.050702,2.306389c0.100872,0.991772 0.352225,1.983565 0.497241,2.175788c0.251353,0.330702 0.301508,0 0.351663,-2.04477c0,-2.498613 -0.251338,-3.290617 -0.798202,-2.437407zm0.446539,6.988605c0.05017,0.130664 0.150481,-0.130643 0.100326,-0.522904c0,-0.399806 -0.050155,-0.461365 -0.150481,-0.199705c-0.044721,0.261265 -0.044721,0.591966 0.050155,0.722609zm1.792152,-6.196537c-0.050155,0.130664 -0.050155,1.053373 0.100326,2.04477c0.151027,1.714777 0.195733,1.783818 0.245903,0.530761c0.050155,-2.045125 -0.05017,-3.036876 -0.346229,-2.575531zm-1.691826,18.597114c0.301508,-0.792067 0.798217,-2.114228 1.144431,-2.906233c0.396369,-0.853335 0.647721,-1.975687 0.748047,-3.098102c0.145578,-1.775983 0.145578,-1.775983 0.145578,-1.775983c-0.597566,0.98427 -0.597566,0.98427 -0.597566,0.98427c-0.296058,0.530448 -0.496709,1.122415 -0.496709,1.322161c0,0.522884 -0.943779,3.821024 -1.239838,4.413032c-0.150481,0.330285 -0.401833,1.060855 -0.446539,1.583717c-0.251353,1.514364 0.195733,1.253057 0.742597,-0.522863zm-3.528699,6.788504c0.151027,1.314576 0.151027,1.314576 0.647736,-1.514697c0.296058,-1.522241 0.742597,-3.95919 1.044105,-5.473907c0.396369,-1.914128 0.547396,-3.497845 0.547396,-5.73513c0,-2.905941 -0.050702,-2.967501 -0.44707,-2.636737c-0.898543,0.853252 -1.395783,3.228682 -1.596434,7.841398c-0.094861,2.375889 -0.195733,4.751319 -0.296043,5.274244c-0.05017,0.530407 0,1.522199 0.10031,2.244829zm0.100872,-16.87521c0.195186,0.653568 0.396384,1.183974 0.396384,1.183974c0.050155,0 0.295497,-0.399806 0.496694,-0.922668c0.251338,-0.46099 0.647721,-0.991397 0.798217,-1.18362c0.592101,-0.599844 0.742582,-2.444868 0.245888,-3.697925c-0.396384,-1.122415 -1.490644,-2.375847 -1.691841,-1.976042c-0.10031,0.130643 -0.245341,1.384075 -0.346213,2.836837c-0.200636,2.175726 -0.200636,2.837129 0.100872,3.759443zm-0.301508,-15.099165c0.100326,0.131018 0.200636,0.06156 0.200636,-0.138124c0,-0.261661 -0.10031,-0.522967 -0.200636,-0.653589c-0.151027,-0.13852 -0.245903,-0.069083 -0.245903,0.192223c0,0.199705 0.094876,0.461365 0.245903,0.599489zm-16.107582,17.728379c0.692427,0.069437 0.692427,0.069437 0.692427,0.069437c0.697892,0 1.395783,-0.853627 1.395783,-1.583717c0,-0.461365 -0.050155,-0.461365 -2.08821,1.51428zm0.296058,-1.845045c0,0.200163 0.100326,0.399806 0.251353,0.399806c0.245357,0 0.943233,-1.183974 0.792752,-1.383658c-0.151027,-0.269142 -1.044105,0.591946 -1.044105,0.983853zm0.547396,-4.543612c0.748062,1.31493 1.094275,1.445573 1.490644,0.591946c0.401833,-0.79165 0.05017,-1.322099 -1.144962,-1.514322c-0.993403,-0.200101 -0.993403,-0.200101 -0.345682,0.922376zm-0.547396,-3.697591c0,0.138124 0.351663,0.460949 0.748047,0.730091c1.836872,1.253078 2.188535,1.253078 2.138365,0.061622c0,-0.722672 -0.748047,-2.306431 -1.044105,-2.306431c-0.351663,0 -1.842307,1.253057 -1.842307,1.514718zm2.685776,9.363681c0.546864,0 0.59702,-0.199746 0.150481,-0.522571c-0.201182,-0.069437 -0.396384,0 -0.446539,0.192223c-0.100872,0.199642 0.050155,0.330348 0.296058,0.330348zm0.396384,-15.491135c-0.346229,-0.330743 -0.793314,-0.461345 -0.99395,-0.330743c-0.346213,0.261661 -0.296058,0.330743 0.200636,0.530386c0.245903,0.13106 0.748608,0.261681 0.99395,0.323241c0.296058,0 0.296058,-0.131018 -0.200636,-0.522884zm-0.044706,2.37543c0.295497,0 0.346213,-0.069083 0.145031,-0.268788c-0.145031,-0.061518 -0.346229,-0.061518 -0.446554,0.069104c-0.050155,0.130601 0.100326,0.261306 0.301523,0.199684zm0.295497,1.514739c-0.697876,0 -0.697876,0.061497 -0.295497,0.591946c0.496694,0.591966 0.641725,0.661008 0.842923,0.261265c0.346198,-0.522571 0.10031,-0.85321 -0.547426,-0.85321zm0.993965,-7.449616c-0.201198,-0.330702 -0.251353,0.261306 -0.150496,0.983915c0.050155,0.461365 0.250806,0.861108 0.351678,0.861108c0.195186,0 0.050155,-1.453116 -0.201182,-1.845024zm1.590954,8.702569c-0.10031,0.061622 0.151027,0.461365 0.447085,0.792109c0.301508,0.330348 0.546849,0.460969 0.546849,0.261265c0,-0.461303 -0.842907,-1.322453 -0.993935,-1.053373zm-1.244756,0.461365c-0.446539,0.461407 -0.195186,1.645319 0.452004,1.845065c0.346213,0.130622 0.893624,0.66107 1.239838,1.183933c0.301508,0.530448 0.546849,0.730549 0.546849,0.530448c0,-0.661049 -1.987338,-3.828588 -2.238691,-3.559447zm2.038055,5.47397c-0.296043,-1.061251 -0.642272,-1.583822 -1.290008,-1.914523c-0.496694,-0.261265 -0.993935,-0.399743 -1.144415,-0.330306c-0.151027,0.069041 0.446539,0.922314 1.295458,1.914086c1.590954,1.714423 1.590954,1.714423 1.138966,0.330743zm2.640524,-10.155789c-0.100326,0 -0.201198,0.261306 -0.201198,0.522571c0,0.330702 0.100872,0.530448 0.201198,0.530448c0.145031,0 0.245903,-0.199746 0.245903,-0.530448c0,-0.261265 -0.100872,-0.522571 -0.245903,-0.522571zm-0.451989,5.404491c0,0.461303 0.848372,0.130643 1.194586,-0.461365c0.496709,-0.991751 0.446539,-1.253057 -0.201182,-1.253057c-0.446539,0 -0.993403,0.922752 -0.993403,1.714423zm1.445938,-14.238119c-0.151027,0.853273 -0.251353,1.575882 -0.201182,1.64534c0.151012,0.261306 0.547411,-1.714381 0.547411,-2.506448c0,-0.330348 -0.151042,0.069458 -0.346229,0.861108zm2.584919,13.315389c-0.251353,0 -0.446554,0.13106 -0.446554,0.392262c0,0.199746 0.145031,0.330764 0.295512,0.330764c0.201182,0 0.396384,-0.131018 0.447085,-0.330764c0.100326,-0.261202 -0.050702,-0.392262 -0.296043,-0.392262zm-0.597581,12.393033c0.296058,1.191873 0.742597,2.306389 0.99395,2.575531c0.251353,0.199746 0.748047,1.122456 1.044105,2.045125c0.296058,0.922356 0.597566,1.644986 0.647736,1.644986c0.245341,0 -0.251353,-6.06554 -0.597566,-7.910918c-0.301523,-1.583363 -0.396399,-3.036521 -0.346229,-5.34291c0.044706,-1.714381 0,-3.229099 -0.10031,-3.359721c-0.05017,-0.130643 -0.396384,-0.130643 -0.697892,0c-0.547411,0.261265 -0.597566,0.461365 -0.597566,1.914482c0,1.114537 -0.100341,1.714423 -0.346229,1.975625c-0.697876,0.592029 -0.647721,3.951729 0,6.457802zm-1.440474,-8.833212c-0.100326,-0.991772 -0.200636,-1.122415 -0.748047,-1.122415c-0.647736,0 -0.647736,0.069083 -0.597566,1.452762c0,0.853627 0.100857,1.845378 0.151012,2.306368c0.05017,0.461365 0.245903,0.922668 0.446554,0.991772c0.396369,0.330743 0.842907,-1.975625 0.748047,-3.628488zm-0.748047,6.657486c-0.446554,-0.791713 -0.748047,-1.644986 -0.792767,-1.845024c0,-0.261265 -0.251338,-0.922314 -0.546864,-1.514322c-0.301508,-0.591966 -0.647721,-1.322474 -0.798748,-1.58378c-0.496694,-0.922668 -0.396384,-0.130601 0.151027,1.914128c0.346213,1.384013 0.943248,2.637091 1.641125,3.690402c1.289993,1.783464 1.440489,1.452825 0.346229,-0.661404zm-0.792767,3.23658c0.541415,0 0.496709,-0.069041 -0.251338,-1.122352c-0.496709,-0.661112 -0.842923,-1.383721 -0.842923,-1.714444c0,-0.261244 -0.647736,-1.191498 -1.395768,-2.04477c-0.742612,-0.861088 -1.440504,-1.71436 -1.540814,-1.975979c-0.100872,-0.330348 -0.151027,-0.330348 -0.151027,0.06156c0,0.399806 -0.245357,0.461303 -1.044105,0.261265c-0.546864,-0.130664 -0.993403,-0.130664 -0.993403,-0.061206c0,0.130643 0.200636,0.922356 0.401833,1.71436c0.346229,1.314638 0.496694,1.583822 1.590969,2.106351c0.692442,0.330702 1.786687,1.122394 2.484579,1.71436c0.647736,0.599906 1.440489,1.060855 1.741997,1.060855zm-7.760723,2.237285c0.201182,0 0.497241,-0.130601 0.697876,-0.330639c0.346229,-0.461011 0.050717,-0.461011 -0.59702,0c-0.296058,0.200038 -0.346213,0.261598 -0.100857,0.330639zm-0.546864,-1.645319c0.496709,-0.268746 2.08821,-0.530407 3.534148,-0.530407c2.72995,-0.06156 3.277346,-0.261202 2.183071,-0.661049c-0.346198,-0.130601 -1.138966,-0.461365 -1.786687,-0.791713c-1.144431,-0.591966 -3.483993,-0.392262 -3.72935,0.26885c-0.050702,0.130955 -0.301508,0.200038 -0.547396,0.130955c-0.496709,-0.200059 -0.99395,0.330389 -1.144431,1.383721c-0.201182,0.85321 0.150481,0.922668 1.490644,0.199642zm-3.975238,1.514718c0.100326,0.530448 0.597566,0.591966 0.99395,0.130601c0.245341,-0.261244 0.245341,-0.391845 0,-0.79165c-0.201182,-0.392324 -0.346213,-0.392324 -0.647721,-0.06156c-0.201182,0.192223 -0.346229,0.522571 -0.346229,0.722609zm-1.590969,4.612778c0.195201,0 0.295527,0.199746 0.195201,0.592008c-0.044721,0.269142 -0.195201,0.530407 -0.296058,0.530407c-0.150481,0 -0.245357,-0.261265 -0.245357,-0.530407c0,-0.322824 0.145031,-0.592008 0.346213,-0.592008z" stroke-width="0" fill="#cccccc"/>
  <path id="svg_8" d="m28.500246,39.872061c-0.329892,0 -0.499456,-0.334645 -0.499456,-0.735944c0,-0.334567 0.084769,-0.659394 0.329892,-0.659394c0.169564,0 0.424821,0.324827 0.509591,0.659394c0.169564,0.487123 0,0.735944 -0.340026,0.735944zm56.391594,19.094416c0.754739,0 0.924278,0.085824 0.499456,0.659316c-0.245123,0.401299 -0.754714,0.735866 -0.999836,0.735866c-0.255232,0 -0.509591,-0.334567 -0.509591,-0.735866c0,-0.411143 0.340052,-0.659316 1.009971,-0.659316zm-52.692662,-23.356773c-0.754714,-0.162374 -0.839509,-0.984609 0,-1.23286c0.424796,-0.076447 0.669944,0.162349 0.669944,0.659394c0,0.411091 -0.245148,0.64999 -0.669944,0.573466zm-9.407673,25.975048c1.009971,-0.238925 1.009971,-0.410651 0.669944,-0.974791c-0.254359,-0.410651 -0.339129,-0.907644 -0.169564,-1.070045c0.084769,-0.248691 0.509591,0 0.754714,0.487175c0.340026,0.659394 0.59436,0.745736 1.264304,0.334567c0.415611,-0.248225 0.754714,-0.41104 0.754714,-0.162349c0,0.162349 0.255257,0 0.585149,-0.334567c0.509616,-0.487175 0.594386,-1.55766 0.084795,-2.131178c-0.414687,-0.487175 -2.519398,-0.324775 -3.104547,0.248225c-0.339129,0.411169 -0.594386,0.325293 -0.924278,-0.410573c-0.509591,-1.22356 -0.509591,-1.395338 0.669919,-1.471784c1.009971,0 1.009971,0 0.169564,-0.496993c-0.423898,-0.238925 -0.839483,-0.735866 -0.839483,-1.060693c0,-0.822183 1.170299,-1.309358 1.679889,-0.73584c0.169564,0.238873 0.499482,0.487175 0.839509,0.487175c0.669944,0 3.868471,-2.78078 3.868471,-3.354297c0,-0.248665 0.330816,-0.411014 0.669944,-0.248665c0.415585,0.086316 1.170324,-0.162349 1.935172,-0.573518c1.084606,-0.659342 1.084606,-0.735866 0.499456,-1.805911c-0.414687,-0.735866 -0.924278,-0.984609 -2.103813,-0.984609c-1.339863,0 -1.679889,0.162426 -2.094576,1.147035c-0.170488,0.659316 -0.680053,1.146517 -1.009971,1.146517c-0.585149,0 -0.754714,-0.735426 -0.169564,-1.146517c0.254334,-0.162426 0.423898,-0.735866 0.423898,-1.309384c0,-0.898318 -0.169564,-1.060693 -1.264304,-0.821742c-1.09474,0.162349 -1.09474,0.085824 -0.839509,-1.147087c0.169564,-0.73584 0.414687,-1.395182 0.585175,-1.471707c0.169564,-0.085824 0.339103,-0.821742 0.339103,-1.557609c0,-1.471862 0.50038,-1.720087 1.425581,-0.659394c0.423872,0.573492 0.679155,0.659394 0.839483,0.162349c0.169564,-0.324775 0.763924,-0.401299 1.689126,-0.238951c1.255094,0.324827 1.339863,0.238951 1.170299,-0.735866c-0.084769,-0.57344 -0.170462,-1.232834 -0.255232,-1.395182c0,-0.248302 -0.414687,-0.573518 -0.915067,-0.82182c-1.009971,-0.411014 -1.264304,-1.395182 -0.340026,-1.395182c0.255257,0 0.500354,-0.162426 0.500354,-0.487693c0,-0.248302 0.509616,-0.410651 1.179535,-0.334619c0.925201,0.086316 1.424658,-0.238821 2.688962,-1.95883c0.925201,-1.232911 1.59512,-1.892253 1.679915,-1.557686c0.084769,0.410651 0.509591,0.649524 0.925176,0.649524c0.669944,0 0.754739,-0.238873 0.509616,-1.308918c-0.085693,-0.735918 -0.509616,-1.634133 -0.764848,-2.045302c-0.754739,-0.908007 -0.754739,-1.9687 0,-1.644003c0.59436,0.325293 2.443814,-0.573 2.443814,-1.146491c0,-0.248691 0.246046,-0.411091 0.585149,-0.411091c0.340052,0 0.50038,0.496967 0.50038,1.147009c0,0.821742 0.169564,1.146569 0.594386,0.907618c0.329892,-0.171752 0.585175,-0.659394 0.585175,-0.984143c0,-0.984661 2.688936,-2.704696 3.358855,-2.21708c0.255283,0.162478 0.509591,0 0.595335,-0.57344c0.245097,-1.147009 1.763735,-2.045302 2.433654,-1.471784c0.340052,0.238873 0.66997,0.162426 0.755663,-0.085824c0.169539,-0.325267 0.839483,-0.573518 1.594196,-0.650094c0.754714,-0.085824 1.764684,-0.411091 2.189506,-0.745658c1.594196,-1.060693 3.189342,-0.984169 3.859261,0.162919c0.424821,0.821691 0.59436,0.821691 0.59436,0.248173c0,-0.735918 0.330841,-0.821742 2.349859,-0.57344c3.198553,0.325267 3.698933,0.325267 4.878468,-0.085902c0.754714,-0.238925 1.009945,-0.1624 1.009945,0.496916c0,0.411169 0.245148,0.735944 0.585175,0.735944c0.254334,0 0.499456,-0.238951 0.499456,-0.487642c0,-0.659316 1.350023,-0.984143 2.529532,-0.659316c0.915067,0.325267 0.999836,0.411014 0.754714,2.618716c-0.084769,1.318736 0,2.217028 0.160354,2.217028c0.169539,0 0.340026,-0.573518 0.340026,-1.39526c0,-1.385908 0.924278,-1.95896 1.264304,-0.821768c0.084795,0.410677 0.329892,0.248251 0.499456,-0.401273c0.424847,-1.720527 1.350023,-0.82226 1.09474,1.060693c-0.254308,1.557609 -0.254308,1.557609 0.500406,0.984091c0.424796,-0.248251 0.754688,-0.898215 0.754688,-1.308918c0,-0.411117 0.255283,-0.898733 0.594411,-1.070511c0.669893,-0.324697 1.425556,0.907696 1.179509,1.806351c-0.084769,0.410729 -0.084769,0.735918 0.160328,0.735918c0.170488,0 0.340052,-0.238873 0.340052,-0.411091c0,-0.238925 0.415585,-0.324827 0.925176,-0.162349c1.093842,0.248251 1.25417,0.907567 0.329918,1.308866c-0.245123,0.172219 -0.50038,0.573518 -0.50038,0.908137c0,0.573518 0.170462,0.573518 1.09474,0c1.509427,-0.984143 2.179346,-0.908137 2.434629,0.162349c0.169539,0.573518 0.500354,0.822209 0.839483,0.573518c0.340026,-0.085876 1.09474,0.248691 1.679915,0.821742c0.509591,0.487616 1.264304,0.898293 1.604331,0.898293c0.50038,0 0.50038,0.411143 0.329892,1.558101c-0.169539,1.232911 -0.169539,1.39526 0.340052,0.898344c0.669919,-0.812468 0.924278,-0.735996 1.170324,0.410573c0.084769,0.573518 0.679129,0.984609 1.349074,1.23286c0.754714,0.162919 1.170324,0.573492 1.170324,1.061133c0,0.496967 0.254308,1.070045 0.509591,1.395312c0.669944,0.57344 0.499456,2.293475 -0.255283,2.866967c-0.254308,0.171778 -0.585124,0.085902 -0.669919,-0.162349c-0.169539,-0.248743 -0.754714,-0.248743 -1.849479,0c-1.764684,0.573 -2.094576,0.735866 -1.679889,1.481084c0.255257,0.487175 3.19024,0.324827 4.793673,-0.248691c0.50038,-0.248277 0.669944,0 0.669944,1.147035c0,0.821691 -0.169564,1.471784 -0.423898,1.471784c-0.170488,0 -0.330816,0.248225 -0.330816,0.659316c0,0.984557 0.415611,0.898215 1.510351,-0.248302c0.584226,-0.659316 0.924252,-0.822183 1.339863,-0.411014c0.423898,0.411014 0.509591,0.411014 0.509591,-0.248302c0,-0.401791 -0.170488,-0.735866 -0.424796,-0.735866c-0.160354,0 -0.330841,-0.325267 -0.330841,-0.650094c0,-0.41104 0.246046,-0.735866 0.585149,-0.735866c0.255257,0 0.594386,0.162349 0.594386,0.401299c0,0.248795 0.330816,0.573492 0.755637,0.659394c0.584251,0.248743 0.754714,0.573518 0.669919,1.55766c-0.170462,1.882824 0.16959,2.456393 1.424658,2.131619c0.594386,-0.162919 0.924252,0 0.669944,0.324775c-0.075559,0.162349 0,0.573518 0.169564,0.745166c0.680053,0.487667 0.424796,1.634262 -0.329918,1.634262c-0.925176,0 -1.179535,0.411014 -0.679129,1.146958c0.339103,0.411091 0.59436,0.487175 0.924252,0.1624c0.764848,-0.821742 0.925201,-0.1624 1.009971,3.115787c0,1.643433 0.169564,2.952869 0.339129,2.952869c0.415585,0 0.255257,1.806351 -0.339129,2.542218c-0.330816,0.410651 -0.330816,0.811924 -0.084769,1.146491c0.59436,0.735944 0,2.867122 -0.755663,2.867122c-0.669893,0 -1.934223,1.557609 -1.934223,2.293527c0,0.898785 -1.084606,0 -1.339863,-0.984169c-0.254334,-0.898267 -0.254334,-0.898267 -0.424821,-0.248691c-0.160328,0.745684 0.755637,3.039211 1.519587,3.689175c0.500354,0.497045 -0.424821,1.318736 -1.094766,0.984169c-0.340052,-0.162349 -0.50038,-0.649524 -0.50038,-1.146517c0,-1.395182 -2.103813,-4.912321 -3.698933,-6.231005c-0.848694,-0.650094 -1.603433,-1.38596 -1.603433,-1.634185c0,-0.496993 -2.68986,-2.045302 -4.199287,-2.54227c-0.840432,-0.248691 -1.094766,-0.162374 -1.094766,0.496967c0,0.487175 -0.160328,0.649524 -0.50038,0.487175c-0.754714,-0.324827 -1.09474,0.411169 -0.424796,1.147035c0.925176,0.898267 0.764848,1.9687 -0.245123,1.557609c-0.679155,-0.248251 -0.76395,-0.162426 -0.509591,1.232886c0.084769,0.812391 0.255257,1.882824 0.255257,2.369999c0,0.496993 0.169539,0.82182 0.339103,0.82182c0.246072,0 0.330816,-0.162426 0.160354,-0.410651c-0.084769,-0.248743 0.085719,-0.487642 0.424796,-0.487642c0.255283,0 0.50038,0.325215 0.50038,0.64999c0,0.334619 -0.33079,0.659316 -0.925176,0.573569c-0.499456,0 -0.924278,-0.238951 -0.924278,-0.401351c0,-0.745736 -2.265064,-5.820405 -2.934983,-6.565623c-0.754739,-0.812468 -0.254359,-1.060693 -6.218356,2.790494c-0.924252,0.573518 -1.934223,1.806351 -2.443814,2.704696c-0.415611,0.898215 -1.085529,1.806351 -1.424658,1.9687c-0.340026,0.162426 -1.59512,1.471784 -2.689886,2.867044c-4.708904,6.144662 -3.944056,6.88058 -3.614138,19.429035c1.425556,9.5087 1.425556,9.5087 1.425556,9.5087c-3.359804,0 -3.359804,0 -3.359804,0c-2.773731,0 -2.773731,0 -2.773731,0c0.254334,-8.773326 0.254334,-8.773326 0.254334,-8.773326c0.169539,-0.735374 0.255257,-2.216951 0.340052,-3.038771c0.084769,-0.487616 -2.35907,-2.618794 -2.274275,-3.105917c0,-0.411091 2.528609,0.735944 2.528609,0.324775c0.415585,-5.982314 0,-10.741611 -1.094766,-13.274503c-0.254334,-1.557686 -2.359044,-6.565131 -2.688936,-6.565131c-0.084795,0 -0.679155,-0.487616 -1.264304,-1.061133c-1.009996,-1.069993 -1.424658,-1.146569 -7.058763,-1.471784c-6.048767,-0.334127 -6.048767,-0.334127 -6.048767,-0.334127c-1.433869,1.146569 -1.433869,1.146569 -1.433869,1.146569c-0.839483,0.745658 -1.679889,1.23286 -1.925038,1.23286c-0.509591,0 -2.614302,1.720449 -3.529369,2.70454c-0.084769,0 -0.169539,-0.085747 -0.169539,-0.162349c-0.084795,0 -0.084795,0 -0.084795,-0.085876c-0.084769,-0.238873 -0.170462,-0.487616 -0.340026,-0.735866c0.509591,-0.411091 0.925176,-0.659782 1.09474,-0.57344c0.254334,0.162349 0.50038,0 0.50038,-0.411169c0,-0.410651 -0.50038,-0.573492 -1.840243,-0.410651c-1.604356,0.248302 -2.019942,0.334127 -2.274275,1.308944c-0.415611,0.496967 -0.50038,1.232886 -0.254334,1.806403c-0.085719,0.735866 -0.085719,1.232834 0,1.232834c0.084769,0 0.169539,-0.162349 0.423898,-0.334567c0,0.085902 0.084769,0.172219 0.170462,0.248691c-0.840407,0.248251 -1.265228,0.984169 -1.179535,1.720035c-0.424796,0.334567 -0.840407,0.496967 -1.349972,0.745218c0,0 0,-0.085824 -0.075584,-0.085824c0.330816,-0.735866 0.50038,-1.557686 0.585149,-2.79052c0.170488,-1.38596 0.084769,-2.293527 -0.169539,-2.293527c-0.169564,0 -0.340026,0.334567 -0.340026,0.821665c0.084744,0.411169 -0.075584,0.82182 -0.414713,0.898344c-0.255257,0.085824 -0.424796,-0.076524 -0.424796,-0.487175c0,-0.984609 -0.329918,-0.984609 -1.085555,-0.086316c-0.339103,0.334567 -1.009047,0.735918 -1.594196,0.908137c-0.764848,0.238873 -1.009971,0.076447 -1.349997,-0.82182c-0.254334,-0.735866 -0.423898,-1.558101 -0.254334,-1.882876c0.084769,-0.411091 0.084769,-0.745218 -0.245123,-0.745218c-0.925201,0 -0.255257,-1.309436 0.839483,-1.558127zm7.228302,-18.845725c-0.509591,-0.085824 -0.925201,-0.324775 -1.09474,-0.659342c-0.084795,-0.487616 -0.169564,-0.487616 -0.169564,0c0,0.334567 -0.340026,0.573518 -0.669944,0.659342c-0.59436,0 -0.59436,0.085876 0.084795,0.411169c0.414661,0.162349 0.839483,0.410573 0.924252,0.410573c0.075559,0 0.50038,-0.248225 0.925201,-0.410573c0.754714,-0.411169 0.754714,-0.411169 0,-0.411169zm66.63875,13.197979c0.160354,0.162426 0.329918,-0.086316 0.329918,-0.496967c0,-0.325215 -0.169564,-0.650042 -0.329918,-0.650042c-0.255232,0 -0.424796,0.1624 -0.424796,0.401299c0,0.248743 0.169564,0.58331 0.424796,0.74571zm-0.59436,0.735918c-0.084769,-0.248743 -0.50038,-0.573492 -0.840407,-0.573492c-0.245123,0 -0.414687,0.324749 -0.245123,0.573492c0.075559,0.248251 0.415585,0.410677 0.754714,0.410677c0.330816,0 0.415585,-0.162426 0.330816,-0.410677zm-0.754714,3.688735c0.254334,0 0.59436,-0.085824 0.59436,-0.162349c0,-0.172219 -0.340026,-0.334567 -0.59436,-0.496993c-0.330816,-0.1624 -0.585175,-0.076524 -0.585175,0.162426c0,0.248691 0.254359,0.496916 0.585175,0.496916zm0.669944,-7.788613c0.339103,-0.162478 0.509565,-0.411143 0.423898,-0.650094c-0.254359,-0.582792 -1.679017,-0.582792 -1.679017,0c0,0.650094 0.499482,0.898344 1.255119,0.650094zm-4.614898,-6.145232c-0.424821,0.248743 -0.679155,0.735918 -0.594411,0.984609c0.424821,0.649602 0.925227,0.487175 1.349099,-0.573518c0.415611,-0.984609 0.246046,-1.146958 -0.754688,-0.411091zm-1.604356,12.624487c2.18948,2.207625 2.274275,2.293527 2.274275,1.55766c0,-0.410651 -0.169564,-0.745218 -0.424821,-0.745218c-0.245097,0 -0.669919,-0.411169 -0.924252,-0.898267c-0.245148,-0.487693 -0.754714,-0.984687 -1.170324,-0.984687c-0.763924,0 -0.763924,0.086342 0.245123,1.070511zm-1.763786,-3.861005c0.508693,0 0.754739,-0.162349 0.423923,-0.238899c-0.254334,-0.1624 -0.669944,-0.1624 -0.924278,0c-0.255283,0.07655 0,0.238899 0.500354,0.238899zm-2.434603,-11.142911c0.254334,0.248302 1.009047,0.573077 1.678966,0.735944c1.179561,0.248225 1.26433,0.248225 0.594386,-0.411091c-0.763924,-0.812468 -2.858501,-1.060693 -2.273351,-0.324853zm-5.124514,-13.5992c-0.254334,0.238873 -0.339103,0.735866 -0.254334,1.060615c0.169564,0.659394 0.669944,0.085902 0.669944,-0.898267c0,-0.496993 -0.084795,-0.573518 -0.415611,-0.162349zm2.519398,17.699156c0.669944,0.410599 0.925201,0.410599 1.265254,-0.162867c0.669919,-0.898318 0.245097,-1.308918 -1.009996,-0.73584c-1.009971,0.40174 -1.009971,0.40174 -0.255257,0.898707zm-1.678966,-4.099956c1.264304,-0.898189 1.264304,-0.898189 0.254334,-0.898189c-0.679155,0 -1.179535,0.324697 -1.433869,0.898189c-0.160354,0.573077 -0.330816,0.898344 -0.246046,0.898344c0,0 0.669944,-0.487667 1.425581,-0.898344zm-1.849479,13.283881c0.584226,0.898344 1.594222,0.898344 1.264304,-0.085876c-0.084769,-0.325215 -0.170462,-0.735866 -0.170462,-0.822209c0,-0.076524 -0.339129,-0.076524 -0.754714,0.086342c-0.679155,0.1624 -0.679155,0.410651 -0.339129,0.821742zm-2.605091,-3.364012c0.669919,0.898318 1.009971,0.984143 1.764684,0.324827c0.50038,-0.410651 0.50038,-0.410651 0,-0.487175c-0.254334,0 -0.924278,-0.086342 -1.509427,-0.248743c-0.840407,-0.324775 -0.840407,-0.324775 -0.255257,0.411091zm-0.084769,-8.9357c0.424796,0 0.925176,-1.309358 0.669944,-1.720009c-0.329918,-0.411091 -1.009073,0.248225 -1.009073,0.984143c0,0.411117 0.169564,0.735866 0.339129,0.735866zm-4.11362,5.571663c-0.509591,0.334567 -0.424796,0.411169 0.245148,0.411169c0.424796,0 0.924252,-0.162919 1.09474,-0.411169c0.254308,-0.649964 -0.585175,-0.649964 -1.339889,0zm0.084795,7.215225c0.075559,0.086342 0.329892,-0.085876 0.585149,-0.487175c0.254308,-0.334567 1.009073,-0.745658 1.594196,-0.908085c0.754714,-0.248302 1.094766,-0.649576 1.094766,-1.232886c0,-1.38539 -1.179535,-0.974817 -2.434654,0.822235c-0.509565,0.907644 -0.924252,1.643562 -0.839457,1.805911zm-0.925176,-3.774663c0.754688,-0.898215 0.754688,-1.061133 0.160302,-1.309384c-0.669919,-0.324827 -1.169375,0.411169 -1.169375,1.720035c-0.085693,0.984609 -0.085693,0.984609 1.009073,-0.410651zm-1.349099,-9.671541c0.084769,0.659316 0.254334,0.573492 0.754688,-0.650042c0.594411,-1.308944 0.594411,-1.481162 0.084795,-1.481162c-0.329892,0 -0.669944,0.248302 -0.754714,0.65942c-0.169564,0.324749 -0.169564,1.070485 -0.084769,1.471784zm-0.415611,-6.718258c0,0.334127 0.160328,1.146569 0.330816,1.720035c0.254334,1.147009 0.254334,1.147009 0.509591,0.1624c0.329892,-0.984091 0,-2.455875 -0.509591,-2.455875c-0.246046,0 -0.330816,0.248173 -0.330816,0.57344zm-5.887515,2.704178c-0.415585,0.573518 -0.415585,1.147035 -0.085693,2.867044c0.170488,1.23286 0.595309,2.465745 0.840407,2.704696c0.424821,0.411091 0.509591,0 0.59436,-2.541829c0,-3.105995 -0.424796,-4.090526 -1.349074,-3.029911zm0.754714,8.68745c0.084795,0.162426 0.254334,-0.1624 0.169564,-0.650016c0,-0.496993 -0.084769,-0.573518 -0.254334,-0.248251c-0.075584,0.324775 -0.075584,0.735866 0.084769,0.898267zm3.028989,-7.702841c-0.084769,0.162426 -0.084769,1.309436 0.169564,2.541829c0.255257,2.131619 0.330816,2.217443 0.415611,0.659782c0.084769,-2.54227 -0.084795,-3.775103 -0.585175,-3.201612zm-2.859424,23.117848c0.509591,-0.984609 1.349099,-2.628172 1.934249,-3.612703c0.669919,-1.060771 1.09474,-2.455953 1.264304,-3.851213c0.246046,-2.207702 0.246046,-2.207702 0.246046,-2.207702c-1.009971,1.223534 -1.009971,1.223534 -1.009971,1.223534c-0.50038,0.659394 -0.839509,1.39526 -0.839509,1.643562c0,0.64999 -1.59512,4.749868 -2.0955,5.485786c-0.254334,0.410573 -0.679155,1.318736 -0.754714,1.9687c-0.424821,1.882487 0.330816,1.55766 1.255094,-0.649964zm-5.963997,8.438707c0.255257,1.634133 0.255257,1.634133 1.094766,-1.882902c0.50038,-1.892279 1.255094,-4.921621 1.764684,-6.804548c0.669919,-2.379429 0.925176,-4.348129 0.925176,-7.129271c0,-3.61234 -0.085693,-3.688865 -0.755612,-3.277695c-1.518664,1.060667 -2.35907,4.013536 -2.698199,9.747547c-0.160328,2.953439 -0.330816,5.906307 -0.500354,6.556349c-0.084795,0.659342 0,1.892228 0.169539,2.79052zm0.170488,-20.97737c0.329892,0.812442 0.669944,1.471784 0.669944,1.471784c0.084769,0 0.499431,-0.496993 0.839483,-1.146958c0.424796,-0.573051 1.09474,-1.232393 1.349099,-1.471344c1.000734,-0.745658 1.255068,-3.039185 0.415585,-4.596846c-0.669944,-1.39526 -2.519398,-2.953387 -2.85945,-2.456393c-0.169539,0.1624 -0.414661,1.720527 -0.585149,3.526438c-0.339103,2.704618 -0.339103,3.526801 0.170488,4.673318zm-0.509591,-18.76959c0.169564,0.162867 0.339103,0.076524 0.339103,-0.1717c0,-0.325267 -0.169539,-0.650094 -0.339103,-0.812468c-0.255257,-0.172193 -0.415611,-0.085876 -0.415611,0.238951c0,0.248251 0.160354,0.573518 0.415611,0.745218zm-27.22408,22.037933c1.170299,0.086316 1.170299,0.086316 1.170299,0.086316c1.179535,0 2.35907,-1.061133 2.35907,-1.9687c0,-0.573518 -0.084769,-0.573518 -3.529369,1.882384zm0.50038,-2.293553c0,0.248821 0.169564,0.496993 0.424821,0.496993c0.414687,0 1.594196,-1.471784 1.339863,-1.720009c-0.255257,-0.334567 -1.764684,0.73584 -1.764684,1.223016zm0.925176,-5.648109c1.26433,1.634573 1.849479,1.796974 2.519398,0.73584c0.679155,-0.984091 0.084795,-1.643485 -1.935147,-1.882435c-1.678991,-0.248743 -1.678991,-0.248743 -0.584251,1.146595zm-0.925176,-4.596431c0,0.1717 0.59436,0.573 1.264304,0.907567c3.104573,1.557686 3.698933,1.557686 3.614138,0.076602c0,-0.898344 -1.264304,-2.867096 -1.764684,-2.867096c-0.59436,0 -3.113758,1.55766 -3.113758,1.882928zm4.539339,11.639878c0.924278,0 1.009047,-0.248302 0.254334,-0.649602c-0.340026,-0.086316 -0.669944,0 -0.754714,0.238951c-0.170488,0.248173 0.084769,0.410651 0.50038,0.410651zm0.669944,-19.256843c-0.585175,-0.411143 -1.340812,-0.573492 -1.679915,-0.411143c-0.585149,0.325267 -0.50038,0.411143 0.339103,0.659316c0.415611,0.162919 1.265254,0.325293 1.679915,0.401817c0.50038,0 0.50038,-0.162867 -0.339103,-0.64999zm-0.075559,2.952869c0.499431,0 0.585149,-0.085876 0.245123,-0.334127c-0.245123,-0.076472 -0.585175,-0.076472 -0.754739,0.085902c-0.084769,0.162349 0.169564,0.324827 0.509616,0.248225zm0.499431,1.882953c-1.179509,0 -1.179509,0.076447 -0.499431,0.73584c0.839483,0.735866 1.084606,0.821691 1.424658,0.324775c0.585124,-0.649602 0.169539,-1.060615 -0.925227,-1.060615zm1.679941,-9.260527c-0.340052,-0.411091 -0.424821,0.324827 -0.254359,1.223093c0.084769,0.573518 0.423898,1.070433 0.594386,1.070433c0.329892,0 0.084769,-1.806351 -0.340026,-2.293527zm2.688936,10.818058c-0.169539,0.076602 0.255257,0.573518 0.755637,0.984661c0.509591,0.410651 0.924252,0.573025 0.924252,0.324775c0,-0.57344 -1.424632,-1.643925 -1.679889,-1.309436zm-2.103813,0.573518c-0.754714,0.573569 -0.329892,2.045276 0.76395,2.293579c0.585149,0.162374 1.510351,0.821768 2.0955,1.471733c0.509591,0.659394 0.924252,0.908137 0.924252,0.659394c0,-0.821742 -3.358881,-4.759272 -3.783702,-4.424705zm3.444599,6.804626c-0.500354,-1.319228 -1.085529,-1.96883 -2.180295,-2.379921c-0.839483,-0.324775 -1.679889,-0.496916 -1.934223,-0.410599c-0.255257,0.085824 0.754714,1.146517 2.189506,2.379377c2.688936,2.131178 2.688936,2.131178 1.925012,0.411143zm4.462857,-12.624539c-0.169564,0 -0.340052,0.324827 -0.340052,0.649602c0,0.411091 0.170488,0.659394 0.340052,0.659394c0.245123,0 0.415611,-0.248302 0.415611,-0.659394c0,-0.324775 -0.170488,-0.649602 -0.415611,-0.649602zm-0.763924,6.718258c0,0.57344 1.433869,0.1624 2.019018,-0.573518c0.839509,-1.232834 0.754714,-1.55766 -0.340026,-1.55766c-0.754714,0 -1.678991,1.147061 -1.678991,2.131178zm2.443839,-17.699234c-0.255257,1.060693 -0.424821,1.95896 -0.340026,2.045302c0.255232,0.324827 0.925201,-2.131126 0.925201,-3.115735c0,-0.410651 -0.255283,0.086342 -0.585175,1.070433zm4.368877,16.552199c-0.424821,0 -0.754739,0.162919 -0.754739,0.487616c0,0.248302 0.245123,0.411169 0.499456,0.411169c0.340026,0 0.669944,-0.162867 0.755637,-0.411169c0.169564,-0.324697 -0.085693,-0.487616 -0.500354,-0.487616zm-1.009996,15.40563c0.50038,1.481602 1.255094,2.867044 1.679915,3.201612c0.424821,0.248302 1.264304,1.395312 1.764684,2.54227c0.50038,1.146569 1.009971,2.044862 1.094766,2.044862c0.414661,0 -0.424821,-7.54 -1.009971,-9.833967c-0.509616,-1.96826 -0.66997,-3.774663 -0.585175,-6.641707c0.075559,-2.131126 0,-4.014054 -0.169539,-4.176428c-0.084795,-0.1624 -0.669944,-0.1624 -1.179535,0c-0.925201,0.324775 -1.009971,0.573518 -1.009971,2.379869c0,1.385468 -0.16959,2.131178 -0.585175,2.455875c-1.179509,0.735944 -1.09474,4.912346 0,8.027616zm-2.434603,-10.980458c-0.169564,-1.23286 -0.339103,-1.39526 -1.264304,-1.39526c-1.094766,0 -1.094766,0.085876 -1.009971,1.805911c0,1.061133 0.170462,2.293967 0.255232,2.867019c0.084795,0.573518 0.415611,1.146958 0.754739,1.23286c0.669919,0.411143 1.424632,-2.455875 1.264304,-4.510529zm-1.264304,8.27584c-0.754739,-0.984169 -1.264304,-2.044862 -1.339889,-2.293527c0,-0.324775 -0.424796,-1.146517 -0.924278,-1.882435c-0.509591,-0.735866 -1.09474,-1.643951 -1.349997,-1.968778c-0.839483,-1.146958 -0.669944,-0.162349 0.255257,2.379429c0.585149,1.720449 1.594222,3.278136 2.773731,4.587494c2.180269,2.217002 2.434629,1.805989 0.585175,-0.822183zm-1.339889,4.023354c0.915067,0 0.839509,-0.085824 -0.424796,-1.395182c-0.839509,-0.82182 -1.424658,-1.720087 -1.424658,-2.131204c0,-0.324749 -1.094766,-1.481136 -2.359044,-2.541829c-1.255119,-1.070407 -2.434654,-2.1311 -2.604193,-2.456316c-0.170488,-0.410651 -0.255257,-0.410651 -0.255257,0.076524c0,0.496993 -0.414687,0.57344 -1.764684,0.324775c-0.924278,-0.162426 -1.678991,-0.162426 -1.678991,-0.076084c0,0.1624 0.339103,1.146569 0.679155,2.1311c0.585175,1.634211 0.839483,1.96883 2.688962,2.618379c1.170324,0.411091 3.019752,1.395234 4.199287,2.1311c1.094766,0.745736 2.434629,1.318736 2.944219,1.318736zm-13.116715,2.781142c0.340026,0 0.840407,-0.162349 1.179509,-0.411014c0.585175,-0.573077 0.085719,-0.573077 -1.009047,0c-0.50038,0.248665 -0.585149,0.325189 -0.170462,0.411014zm-0.924278,-2.045276c0.839509,-0.334075 3.529369,-0.659342 5.973208,-0.659342c4.614,-0.076524 5.539176,-0.324697 3.689697,-0.821742c-0.585124,-0.162349 -1.925012,-0.573518 -3.019752,-0.984169c-1.934249,-0.735866 -5.888439,-0.487616 -6.303126,0.334204c-0.085693,0.162789 -0.509591,0.248665 -0.925176,0.162789c-0.839509,-0.248691 -1.679915,0.410703 -1.934249,1.720087c-0.340026,1.060615 0.254334,1.146958 2.519398,0.248173zm-6.718711,1.882928c0.169564,0.659394 1.009971,0.735866 1.679915,0.162349c0.414661,-0.324749 0.414661,-0.487098 0,-0.984091c-0.340026,-0.487693 -0.585149,-0.487693 -1.09474,-0.076524c-0.340026,0.238951 -0.585175,0.649602 -0.585175,0.898267zm-2.688962,5.734089c0.329918,0 0.499482,0.248302 0.329918,0.735918c-0.075584,0.334567 -0.329918,0.659342 -0.50038,0.659342c-0.254334,0 -0.414687,-0.324775 -0.414687,-0.659342c0,-0.401299 0.245123,-0.735918 0.585149,-0.735918z" stroke-width="0" fill="#cccccc"/>
 </g>
</svg>